<svg width="180" height="180" viewBox="0 0 180 189" fill="none" xmlns="http://www.w3.org/2000/svg">
<ellipse cx="90" cy="102" rx="90" ry="87" fill="#008CBA"/>
<path d="M126 58H98V126H126V58Z" fill="#8DC63F"/>
<path d="M112 157C118.627 157 124 151.627 124 145C124 138.373 118.627 133 112 133C105.373 133 100 138.373 100 145C100 151.627 105.373 157 112 157Z" fill="white"/>
<path d="M34.1875 124.625C32.1458 123.167 31.5833 121.604 32.5 119.938L35.6875 114.125C36.8125 112.042 38.5625 111.792 40.9375 113.375C43.3125 114.958 46.1042 116.125 49.3125 116.875C52.5625 117.625 55.5208 118 58.1875 118C60.0625 118 61.8125 117.812 63.4375 117.438C65.0625 117.062 66.4375 116.333 67.5625 115.25C68.6875 114.167 69.25 112.583 69.25 110.5C69.25 109.25 68.9167 108.188 68.25 107.312C67.5833 106.438 66.7292 105.771 65.6875 105.312C64.6458 104.854 63.5417 104.479 62.375 104.188C60.8333 103.812 58.6042 103.188 55.6875 102.312C52.8125 101.438 50.0417 100.417 47.375 99.25C45.1667 98.2917 43 96.9583 40.875 95.25C38.7917 93.5 37.25 91.5625 36.25 89.4375C35.2917 87.3125 34.8125 84.6875 34.8125 81.5625C34.8125 77.3542 36.0208 73.6667 38.4375 70.5C40.8958 67.3333 44.0625 65.1458 47.9375 63.9375C51.8125 62.7292 56.6458 62.125 62.4375 62.125C66.3542 62.125 70.1667 62.6875 73.875 63.8125C77.5833 64.9375 80.2292 66 81.8125 67C84.3125 68.5833 84.9375 70.2708 83.6875 72.0625L79.875 77.625C78.7083 79.2917 76.8333 79.4167 74.25 78C72.2917 76.9167 70.3542 76.0417 68.4375 75.375C66.5625 74.7083 64.4583 74.375 62.125 74.375C60.5417 74.375 59.0208 74.5417 57.5625 74.875C56.1042 75.2083 54.8542 75.8333 53.8125 76.75C52.8125 77.6667 52.3125 78.875 52.3125 80.375C52.3125 81.9583 52.7708 83.2083 53.6875 84.125C54.6458 85 55.7292 85.6458 56.9375 86.0625C58.1875 86.4792 59.375 86.875 60.5 87.25C62.8333 88 65.1875 88.7292 67.5625 89.4375C69.9375 90.1042 72.3542 90.9167 74.8125 91.875C76.9375 92.7083 79 93.8958 81 95.4375C83 96.9792 84.4583 98.9375 85.375 101.312C86.2917 103.688 86.75 106.396 86.75 109.438C86.75 113.479 85.5417 117.229 83.125 120.688C80.7083 124.146 77.5208 126.604 73.5625 128.062C69.6042 129.521 65 130.25 59.75 130.25C53.875 130.25 48.875 129.833 44.75 129C40.625 128.167 37.1042 126.708 34.1875 124.625Z" fill="white"/>
</svg>
